<svg width="40" height="40" viewBox="0 0 40 40" fill="none" xmlns="http://www.w3.org/2000/svg">
<path d="M28.3333 10.9C30.1743 10.9 31.6667 9.40762 31.6667 7.56667C31.6667 5.72572 30.1743 4.23334 28.3333 4.23334C26.4924 4.23334 25 5.72572 25 7.56667C25 9.40762 26.4924 10.9 28.3333 10.9Z" fill="#F9F9F9"/>
<path d="M23.3333 28.3334H20C20 31.0834 17.75 33.3334 15 33.3334C12.25 33.3334 9.99996 31.0834 9.99996 28.3334C9.99996 25.5834 12.25 23.3334 15 23.3334V20C10.4 20 6.66663 23.7334 6.66663 28.3334C6.66663 32.9334 10.4 36.6667 15 36.6667C19.6 36.6667 23.3333 32.9334 23.3333 28.3334ZM28.3333 22.5H25.2333L28.0166 16.3834C29.0333 14.1667 27.4 11.6667 24.9333 11.6667H16.2666C14.9166 11.6667 13.7 12.45 13.15 13.6667L12.0333 16.6667L15.2333 17.55L16.3166 15H20L16.95 21.8334C15.95 24.05 17.6 26.6667 20.0333 26.6667H28.3333V35H31.6666V25.8334C31.6666 24 30.1666 22.5 28.3333 22.5Z" fill="#F9F9F9"/>
</svg>
