<svg width="140" height="13" viewBox="0 0 140 13" fill="none" xmlns="http://www.w3.org/2000/svg">
<path d="M24.5131 3.56596C9.81434 5.18893 4.68251 5.89437 2.18459 6.63454C1.89181 6.72148 1.57565 6.81288 1.48191 6.83798C1.38836 6.863 1.04381 7.23517 0.716421 7.66484C0.178773 8.37056 0.156794 8.52231 0.488603 9.23263C0.91812 10.1521 2.47051 11.6914 3.38782 12.1073C4.00123 12.3854 4.1086 12.3542 5.95641 11.3642C7.78619 10.384 8.10716 10.2888 12.2408 9.50515C17.8416 8.44316 30.3303 6.55558 35.8073 5.94324C40.2671 5.44461 49.0751 4.71144 48.803 4.86174C48.716 4.9096 46.806 5.1903 44.5584 5.48576C32.1345 7.11814 30.563 7.13573 16.9999 10.0712C17.0482 11.6628 21.4258 12.8077 22.6869 12.5L52.0927 7.34946C65.7473 5.37584 73.9974 4.78376 94.1055 4.33458C97.732 4.25357 103.353 4.48792 108.81 4.94757C114.091 5.39237 128.759 7.19238 132.821 7.8941C136.512 8.53207 139.124 8.76394 139.682 8.50351C140.238 8.24346 139.728 7.78276 138.751 7.66354C138.22 7.59875 136.387 7.23568 134.676 6.85641C132.965 6.47735 130.819 6.02882 129.907 5.8599C128.994 5.69088 128.231 5.51722 128.211 5.47387C128.127 5.29333 130.389 5.62285 133.058 6.18019C134.629 6.508 135.992 6.74004 136.087 6.6955C136.182 6.65096 136.184 6.45395 136.091 6.25791C135.403 4.81376 119.161 2.76907 105.18 2.36622C101.868 2.27081 96.1849 2.01764 92.5509 1.80348C74.5744 0.744329 66.1649 0.681067 50.3342 1.48576C39.7004 2.02639 35.0979 2.39713 24.5131 3.56596Z" fill="#FF2E63"/>
</svg>
