<svg width="26" height="26" viewBox="0 0 26 26" fill="none" xmlns="http://www.w3.org/2000/svg">
<path d="M1 1.0033L24.9967 25" stroke="#FF4575" stroke-width="2" stroke-linecap="round" stroke-linejoin="round"/>
<path d="M16.2706 10.1002V4.27557C16.2714 3.46408 15.9707 2.68123 15.4268 2.079C14.8829 1.47677 14.1346 1.09813 13.3272 1.01657C12.5198 0.93502 11.7109 1.15638 11.0576 1.63767C10.4042 2.11896 9.953 2.82585 9.79152 3.62112M9.72607 9.72937V13.0016C9.72664 13.6484 9.91887 14.2805 10.2785 14.8181C10.6381 15.3557 11.1489 15.7747 11.7465 16.0221C12.3441 16.2696 13.0016 16.3344 13.636 16.2083C14.2703 16.0823 14.8531 15.7711 15.3108 15.3141L9.72607 9.72937Z" stroke="#FF4575" stroke-width="2" stroke-linecap="round" stroke-linejoin="round"/>
<path d="M20.6336 10.8201V13.0017C20.6332 13.4515 20.593 13.9005 20.5136 14.3433M18.4521 18.4009C17.3872 19.4878 16.022 20.2317 14.5314 20.5373C13.0409 20.8428 11.493 20.6961 10.0865 20.1159C8.6799 19.5357 7.47875 18.5485 6.63713 17.2809C5.79551 16.0133 5.35181 14.5232 5.36294 13.0017V10.8201L18.4521 18.4009Z" stroke="#FF4575" stroke-width="2" stroke-linecap="round" stroke-linejoin="round"/>
<path d="M12.9984 20.637V25" stroke="#FF4575" stroke-width="2" stroke-linecap="round" stroke-linejoin="round"/>
<path d="M8.63528 25H17.3614" stroke="#FF4575" stroke-width="2" stroke-linecap="round" stroke-linejoin="round"/>
</svg>
